<svg width="2483" height="500" viewBox="0 0 2483 500" fill="none" xmlns="http://www.w3.org/2000/svg">
<path d="M216.482 0L0 125L216.482 250L405.918 140.603V359.397L243.585 453.132V484.397L433.021 375V125L405.918 109.397L216.482 218.736L54.1493 125L243.585 15.6033L216.482 0Z" fill="white"/>
<path d="M270.631 31.2644L108.241 125L216.482 187.529L378.872 93.7355L270.631 31.2644Z" fill="white"/>
<path d="M0 156.264V375L216.482 500L215.384 281.264L189.436 265.661V453.132L27.0458 359.397V171.868L0 156.264Z" fill="white"/>
<path d="M378.872 187.529L243.585 265.661V421.868L378.872 343.793V187.529Z" fill="white"/>
<path d="M54.1494 187.529V343.793L162.39 406.265V250L54.1494 187.529Z" fill="white"/>
<path d="M825.259 48.1244V65.0511H791.542V174.698H770.778V65.1196H736.925V48.1929H825.259V48.1244Z" fill="white"/>
<path d="M956.012 148.931H902.97L893.856 174.766H872.201L917.567 47.9873H941.621L986.987 174.766H965.126L956.012 148.931ZM950.187 131.936L929.628 73.069L908.864 131.936H950.187Z" fill="white"/>
<path d="M1115 174.766L1085.88 124.123H1070.04V174.766H1049.28V48.1244H1093C1102.73 48.1244 1110.96 49.8376 1117.67 53.1956C1124.39 56.622 1129.46 61.1449 1132.82 66.8329C1136.18 72.5208 1137.82 78.894 1137.82 85.9525C1137.82 94.2446 1135.42 101.714 1130.62 108.43C1125.83 115.146 1118.43 119.737 1108.49 122.205L1139.81 174.698H1115V174.766ZM1069.98 107.539H1092.93C1100.68 107.539 1106.57 105.62 1110.55 101.714C1114.52 97.8081 1116.44 92.5999 1116.44 86.0211C1116.44 79.4423 1114.52 74.3026 1110.61 70.602C1106.71 66.9014 1100.81 65.0511 1092.93 65.0511H1069.98V107.471V107.539Z" fill="white"/>
<path d="M1530.49 157.977H1573.32V174.766H1509.73V48.1244H1530.49V157.977Z" fill="white"/>
<path d="M1656.93 64.914V102.057H1700.65V118.984H1656.93V157.771H1706.13V174.698H1636.16V47.9873H1706.13V64.914H1656.93Z" fill="white"/>
<path d="M666.682 67.7238C657.91 64.3658 648.384 62.7897 639.407 62.7897C628.305 62.7897 616.724 66.6958 616.724 79.1682C616.724 89.0364 623.577 93.9705 641.737 101.372C663.94 110.349 677.098 119.326 677.098 140.091C677.098 165.104 655.443 176 632.691 176C621.452 176 607.13 173.876 595 168.941L599.249 151.878C610.693 157.017 623.028 159.279 632.348 159.279C646.945 159.279 656.676 153.454 656.676 141.461C656.676 130.565 647.151 124.877 629.196 117.682C608.432 109.253 596.096 98.8361 596.096 80.8814C596.096 56.2109 618.437 46 638.722 46C650.372 46 661.61 47.5762 670.793 50.9341L666.75 67.6552L666.682 67.7238Z" fill="white"/>
<path d="M1287.62 48.1244V65.0511H1253.91V174.698H1233.14V65.1196H1199.29V48.1929H1287.62V48.1244Z" fill="white"/>
<path d="M1418.38 148.931H1365.34L1356.22 174.766H1334.57L1379.93 47.9873H1403.99L1449.35 174.766H1427.49L1418.38 148.931ZM1412.55 131.936L1392 73.069L1371.23 131.936H1412.55Z" fill="white"/>
<path d="M2466.89 314.675L2460 337.179C2447.3 331.619 2434.85 329.766 2423.73 329.766C2412.35 329.766 2400.96 334.002 2400.96 345.387C2400.96 355.183 2407.58 359.683 2429.03 367.097C2457.09 376.628 2474.04 387.748 2474.04 411.84C2474.04 442.552 2445.97 452.878 2419.5 452.878C2403.88 452.878 2384.28 449.436 2369.72 443.082L2376.34 419.783C2391.43 426.402 2408.38 429.844 2419.76 429.844C2434.85 429.844 2445.44 425.608 2445.44 413.429C2445.44 402.839 2435.65 397.544 2413.67 390.13C2385.87 380.599 2372.37 367.891 2372.37 348.299C2372.37 319.44 2398.32 306.732 2424 306.732C2438.56 306.732 2454.71 309.38 2466.89 314.675Z" fill="white"/>
<path d="M2348.88 374.135C2348.88 379.539 2348.53 384.42 2347.83 388.778H2237.75C2238.62 400.282 2242.9 409.521 2250.57 416.494C2258.24 423.466 2267.65 426.953 2278.8 426.953C2294.84 426.953 2306.17 420.241 2312.8 406.819H2344.96C2340.6 420.067 2332.67 430.962 2321.16 439.503C2309.83 447.87 2295.71 452.054 2278.8 452.054C2265.03 452.054 2252.66 449.003 2241.68 442.902C2230.87 436.627 2222.33 427.911 2216.05 416.755C2209.95 405.425 2206.9 392.351 2206.9 377.534C2206.9 362.718 2209.86 349.731 2215.79 338.575C2221.89 327.245 2230.34 318.529 2241.15 312.428C2252.13 306.327 2264.68 303.277 2278.8 303.277C2292.4 303.277 2304.52 306.24 2315.15 312.167C2325.78 318.093 2334.06 326.46 2339.99 337.268C2345.91 347.901 2348.88 360.19 2348.88 374.135ZM2317.76 364.722C2317.59 353.741 2313.67 344.938 2306 338.314C2298.33 331.69 2288.83 328.378 2277.5 328.378C2267.21 328.378 2258.41 331.69 2251.09 338.314C2243.77 344.763 2239.41 353.566 2238.01 364.722H2317.76Z" fill="white"/>
<path d="M2050.12 377.534C2050.12 362.718 2053.08 349.731 2059.01 338.575C2065.11 327.245 2073.48 318.529 2084.11 312.428C2094.74 306.327 2106.95 303.277 2120.72 303.277C2138.15 303.277 2152.53 307.46 2163.86 315.827C2175.36 324.02 2183.12 335.786 2187.13 351.126H2154.97C2152.35 343.979 2148.17 338.401 2142.42 334.392C2136.67 330.382 2129.43 328.378 2120.72 328.378C2108.51 328.378 2098.75 332.736 2091.43 341.451C2084.28 349.993 2080.71 362.02 2080.71 377.534C2080.71 393.048 2084.28 405.163 2091.43 413.879C2098.75 422.595 2108.51 426.953 2120.72 426.953C2137.97 426.953 2149.39 419.37 2154.97 404.205H2187.13C2182.95 418.847 2175.1 430.526 2163.6 439.242C2152.09 447.783 2137.8 452.054 2120.72 452.054C2106.95 452.054 2094.74 449.003 2084.11 442.902C2073.48 436.627 2065.11 427.911 2059.01 416.755C2053.08 405.425 2050.12 392.351 2050.12 377.534Z" fill="white"/>
<path d="M2006.28 286.542C2000.87 286.542 1996.34 284.712 1992.68 281.052C1989.02 277.391 1987.19 272.859 1987.19 267.455C1987.19 262.051 1989.02 257.519 1992.68 253.859C1996.34 250.198 2000.87 248.368 2006.28 248.368C2011.51 248.368 2015.95 250.198 2019.61 253.859C2023.27 257.519 2025.1 262.051 2025.1 267.455C2025.1 272.859 2023.27 277.391 2019.61 281.052C2015.95 284.712 2011.51 286.542 2006.28 286.542ZM2020.92 305.63V449.701H1991.11V305.63H2020.92Z" fill="white"/>
<path d="M1896.15 423.031L1936.94 305.63H1968.58L1913.67 449.701H1878.11L1823.46 305.63H1855.36L1896.15 423.031Z" fill="white"/>
<path d="M1769.92 326.548C1774.28 319.226 1780.03 313.561 1787.17 309.552C1794.5 305.368 1803.12 303.277 1813.06 303.277V334.13H1805.48C1793.8 334.13 1784.91 337.094 1778.81 343.02C1772.88 348.947 1769.92 359.231 1769.92 373.874V449.701H1740.11V305.63H1769.92V326.548Z" fill="white"/>
<path d="M1710.78 374.135C1710.78 379.539 1710.43 384.42 1709.73 388.778H1599.65C1600.52 400.282 1604.79 409.521 1612.46 416.494C1620.13 423.466 1629.55 426.953 1640.7 426.953C1656.74 426.953 1668.07 420.241 1674.69 406.819H1706.85C1702.5 420.067 1694.56 430.962 1683.06 439.503C1671.73 447.87 1657.61 452.054 1640.7 452.054C1626.93 452.054 1614.55 449.003 1603.57 442.902C1592.77 436.627 1584.22 427.911 1577.95 416.755C1571.85 405.425 1568.8 392.351 1568.8 377.534C1568.8 362.718 1571.76 349.731 1577.69 338.575C1583.79 327.245 1592.24 318.529 1603.05 312.428C1614.03 306.327 1626.58 303.277 1640.7 303.277C1654.3 303.277 1666.41 306.24 1677.05 312.167C1687.68 318.093 1695.96 326.46 1701.89 337.268C1707.81 347.901 1710.78 360.19 1710.78 374.135ZM1679.66 364.722C1679.49 353.741 1675.56 344.938 1667.89 338.314C1660.22 331.69 1650.72 328.378 1639.39 328.378C1629.11 328.378 1620.31 331.69 1612.99 338.314C1605.66 344.763 1601.31 353.566 1599.91 364.722H1679.66Z" fill="white"/>
<path d="M1538.29 267.194L1532.27 292.033C1519.2 287.065 1505.08 284.712 1491.74 284.712C1475.27 284.712 1458.02 290.464 1458.02 309.029C1458.02 323.671 1468.21 330.993 1495.14 341.974C1528.09 355.309 1547.7 368.644 1547.7 399.498C1547.7 436.627 1515.54 452.838 1481.81 452.838C1465.07 452.838 1443.9 449.701 1425.85 442.379L1432.13 417.017C1449.13 424.599 1467.43 427.998 1481.29 427.998C1502.99 427.998 1517.37 419.37 1517.37 401.59C1517.37 385.379 1503.25 377.011 1476.58 366.291C1445.73 353.741 1427.42 338.314 1427.42 311.644C1427.42 275.038 1460.63 259.872 1490.7 259.872C1507.96 259.872 1524.69 262.226 1538.29 267.194Z" fill="white"/>
<path d="M1184.25 377.012C1184.25 362.544 1187.21 349.731 1193.14 338.575C1199.24 327.419 1207.43 318.791 1217.72 312.69C1228.18 306.414 1239.77 303.277 1252.49 303.277C1261.91 303.277 1271.15 305.369 1280.21 309.552C1289.45 313.561 1296.77 318.965 1302.17 325.763V256.212H1332.24V449.701H1302.17V427.999C1297.29 434.971 1290.49 440.724 1281.78 445.256C1273.24 449.788 1263.39 452.054 1252.23 452.054C1239.68 452.054 1228.18 448.916 1217.72 442.641C1207.43 436.191 1199.24 427.301 1193.14 415.971C1187.21 404.466 1184.25 391.48 1184.25 377.012ZM1302.17 377.535C1302.17 367.599 1300.08 358.97 1295.9 351.649C1291.89 344.328 1286.57 338.75 1279.95 334.915C1273.32 331.08 1266.18 329.162 1258.51 329.162C1250.84 329.162 1243.69 331.08 1237.07 334.915C1230.44 338.575 1225.04 344.066 1220.86 351.387C1216.85 358.534 1214.84 367.076 1214.84 377.012C1214.84 386.948 1216.85 395.663 1220.86 403.159C1225.04 410.654 1230.44 416.407 1237.07 420.416C1243.87 424.251 1251.01 426.168 1258.51 426.168C1266.18 426.168 1273.32 424.251 1279.95 420.416C1286.57 416.581 1291.89 411.003 1295.9 403.682C1300.08 396.186 1302.17 387.471 1302.17 377.535Z" fill="white"/>
<path d="M1154.86 305.63V449.701H1125.05V432.705C1120.34 438.632 1114.16 443.338 1106.49 446.824C1098.99 450.136 1090.97 451.792 1082.43 451.792C1071.1 451.792 1060.9 449.439 1051.84 444.733C1042.95 440.026 1035.89 433.054 1030.66 423.815C1025.6 414.576 1023.08 403.42 1023.08 390.347V305.63H1052.62V385.902C1052.62 398.801 1055.85 408.737 1062.3 415.709C1068.75 422.508 1077.55 425.907 1088.71 425.907C1099.86 425.907 1108.66 422.508 1115.11 415.709C1121.74 408.737 1125.05 398.801 1125.05 385.902V305.63H1154.86Z" fill="white"/>
<path d="M920.136 452.054C906.539 452.054 894.25 449.003 883.268 442.902C872.287 436.627 863.658 427.911 857.383 416.755C851.107 405.425 847.97 392.351 847.97 377.534C847.97 362.892 851.195 349.906 857.644 338.575C864.094 327.245 872.897 318.529 884.053 312.428C895.209 306.327 907.672 303.277 921.443 303.277C935.214 303.277 947.677 306.327 958.834 312.428C969.99 318.529 978.793 327.245 985.242 338.575C991.692 349.906 994.917 362.892 994.917 377.534C994.917 392.177 991.605 405.163 984.981 416.494C978.357 427.824 969.292 436.627 957.788 442.902C946.457 449.003 933.907 452.054 920.136 452.054ZM920.136 426.168C927.806 426.168 934.953 424.338 941.576 420.677C948.375 417.017 953.866 411.526 958.049 404.205C962.233 396.883 964.324 387.993 964.324 377.534C964.324 367.076 962.32 358.273 958.311 351.126C954.301 343.805 948.985 338.314 942.361 334.653C935.737 330.993 928.59 329.162 920.92 329.162C913.25 329.162 906.104 330.993 899.48 334.653C893.03 338.314 887.888 343.805 884.053 351.126C880.218 358.273 878.3 367.076 878.3 377.534C878.3 393.048 882.222 405.076 890.067 413.617C898.085 421.985 908.108 426.168 920.136 426.168Z" fill="white"/>
<path d="M818.509 256.212V449.701H788.701V256.212H818.509Z" fill="white"/>
<path d="M576.534 358.447C576.534 340.667 580.63 324.717 588.823 310.598C597.19 296.478 608.433 285.497 622.553 277.652C636.847 269.634 652.448 265.625 669.356 265.625C688.705 265.625 705.875 270.418 720.866 280.006C736.031 289.419 747.013 302.841 753.812 320.272H717.99C713.283 310.685 706.747 303.538 698.38 298.832C690.012 294.125 680.338 291.772 669.356 291.772C657.329 291.772 646.608 294.474 637.195 299.878C627.782 305.281 620.374 313.038 614.97 323.148C609.741 333.259 607.126 345.025 607.126 358.447C607.126 371.869 609.741 383.636 614.97 393.746C620.374 403.856 627.782 411.7 637.195 417.278C646.608 422.682 657.329 425.384 669.356 425.384C680.338 425.384 690.012 423.031 698.38 418.324C706.747 413.618 713.283 406.471 717.99 396.883H753.812C747.013 414.315 736.031 427.737 720.866 437.15C705.875 446.563 688.705 451.269 669.356 451.269C652.273 451.269 636.672 447.347 622.553 439.503C608.433 431.485 597.19 420.416 588.823 406.296C580.63 392.177 576.534 376.227 576.534 358.447Z" fill="white"/>
</svg>
